<svg width="61" height="55" viewBox="0 0 61 55" fill="none" xmlns="http://www.w3.org/2000/svg">
<path d="M43.4625 22.9167L35.8375 30.5556L39.04 33.7639L41.0225 31.7778C40.7175 34.4768 39.5737 36.7298 37.5912 38.5367C35.6087 40.3435 33.245 41.248 30.5 41.25C29.7883 41.25 29.1275 41.1858 28.5175 41.0575C27.9075 40.9292 27.2975 40.7387 26.6875 40.4861L23.3325 43.8472C24.4 44.4583 25.5316 44.9421 26.7271 45.2986C27.9227 45.6551 29.1804 45.8333 30.5 45.8333C34.5667 45.8333 38.0365 44.4583 40.9096 41.7083C43.7827 38.9583 45.3454 35.5972 45.5975 31.625L47.885 33.7639L51.0875 30.5556L43.4625 22.9167ZM17.5375 38.1944L25.1625 30.5556L21.96 27.3472L19.9775 29.3333C20.2825 26.6343 21.4263 24.3813 23.4088 22.5744C25.3913 20.7676 27.755 19.8631 30.5 19.8611C31.2117 19.8611 31.8725 19.9253 32.4825 20.0536C33.0925 20.1819 33.7025 20.3724 34.3125 20.625L37.6675 17.2639C36.6 16.6528 35.4684 16.169 34.2729 15.8125C33.0773 15.456 31.8196 15.2778 30.5 15.2778C26.4333 15.2778 22.9635 16.6528 20.0904 19.4028C17.2173 22.1528 15.6546 25.5139 15.4025 29.4861L13.115 27.3472L9.9125 30.5556L17.5375 38.1944ZM6.1 55C4.4225 55 2.98595 54.4011 1.79035 53.2033C0.594755 52.0056 -0.00202815 50.5674 5.17827e-06 48.8889V12.2222C5.17827e-06 10.5417 0.597805 9.1025 1.7934 7.90472C2.989 6.70694 4.42454 6.10907 6.1 6.11111H15.7075L21.35 0H39.65L45.2925 6.11111H54.9C56.5775 6.11111 58.014 6.71 59.2096 7.90778C60.4052 9.10555 61.002 10.5437 61 12.2222V48.8889C61 50.5694 60.4022 52.0086 59.2066 53.2064C58.011 54.4042 56.5755 55.002 54.9 55H6.1Z" fill="white"/>
</svg>
