<svg width="26" height="22" viewBox="0 0 26 22" fill="none" xmlns="http://www.w3.org/2000/svg">
<path d="M23.7843 0.194239C23.7843 0.194239 26.1892 -0.758043 25.988 1.55446C25.9218 2.50674 25.3207 5.84004 24.8527 9.44488L23.2494 20.1243C23.2494 20.1243 23.1157 21.6888 21.9129 21.9609C20.7107 22.2325 18.9069 21.0087 18.5726 20.7365C18.3052 20.5322 13.5621 17.4711 11.8919 15.9751C11.4239 15.5665 10.8891 14.7506 11.9588 13.7984L18.9731 6.99598C19.7748 6.1801 20.5764 4.27554 17.2361 6.58804L7.8824 13.0497C7.8824 13.0497 6.81332 13.7305 4.80949 13.1182L0.466318 11.7574C0.466318 11.7574 -1.13699 10.7372 1.60225 9.71706C8.28354 6.52015 16.5013 3.25537 23.783 0.194239H23.7843Z" fill="white"/>
</svg>
