<svg width="26" height="26" viewBox="0 0 26 26" fill="none" xmlns="http://www.w3.org/2000/svg">
<path d="M1.08342 10.8319C0.796082 10.8319 0.520509 10.7177 0.317328 10.5146C0.114146 10.3114 0 10.0358 0 9.74846V1.08324C0 0.795899 0.114146 0.520326 0.317328 0.317144C0.520509 0.113963 0.796082 -0.000183105 1.08342 -0.000183105H9.75081C10.0382 -0.000183105 10.3137 0.113963 10.5169 0.317144C10.7201 0.520326 10.8342 0.795899 10.8342 1.08324V9.74846C10.8342 10.0358 10.7201 10.3114 10.5169 10.5146C10.3137 10.7177 10.0382 10.8319 9.75081 10.8319H1.08342ZM16.2514 10.8319C15.964 10.8319 15.6884 10.7177 15.4853 10.5146C15.2821 10.3114 15.1679 10.0358 15.1679 9.74846V1.08324C15.1679 0.795899 15.2821 0.520326 15.4853 0.317144C15.6884 0.113963 15.964 -0.000183105 16.2514 -0.000183105H24.9166C25.2039 -0.000183105 25.4795 0.113963 25.6827 0.317144C25.8859 0.520326 26 0.795899 26 1.08324V9.74846C26 10.0358 25.8859 10.3114 25.6827 10.5146C25.4795 10.7177 25.2039 10.8319 24.9166 10.8319H16.2514ZM1.08342 25.9998C0.796082 25.9998 0.520509 25.8857 0.317328 25.6825C0.114146 25.4793 0 25.2037 0 24.9164V16.249C0 15.9617 0.114146 15.6861 0.317328 15.4829C0.520509 15.2797 0.796082 15.1656 1.08342 15.1656H9.75081C10.0382 15.1656 10.3137 15.2797 10.5169 15.4829C10.7201 15.6861 10.8342 15.9617 10.8342 16.249V24.9164C10.8342 25.2037 10.7201 25.4793 10.5169 25.6825C10.3137 25.8857 10.0382 25.9998 9.75081 25.9998H1.08342ZM16.2514 25.9998C15.964 25.9998 15.6884 25.8857 15.4853 25.6825C15.2821 25.4793 15.1679 25.2037 15.1679 24.9164V16.249C15.1679 15.9617 15.2821 15.6861 15.4853 15.4829C15.6884 15.2797 15.964 15.1656 16.2514 15.1656H24.9166C25.2039 15.1656 25.4795 15.2797 25.6827 15.4829C25.8859 15.6861 26 15.9617 26 16.249V24.9164C26 25.2037 25.8859 25.4793 25.6827 25.6825C25.4795 25.8857 25.2039 25.9998 24.9166 25.9998H16.2514Z" fill="white"/>
</svg>
