<svg width="30" height="30" viewBox="0 0 30 30" fill="none" xmlns="http://www.w3.org/2000/svg">
<path d="M25.9563 15.2693C25.1186 13.2409 23.6579 11.4836 21.7542 10.2139L25.267 6.95679L24.2329 6L4.73304 24.0432L5.76707 25L9.50718 21.5461C11.1766 22.4464 13.068 22.9347 15 22.9643C17.3904 22.8811 19.702 22.1517 21.6492 20.8661C23.5964 19.5805 25.0938 17.7952 25.9563 15.7307C26.0146 15.5816 26.0146 15.4184 25.9563 15.2693ZM15 19.9107C13.9891 19.9103 13.0049 19.6107 12.1913 19.0557L13.5333 17.8275C14.0898 18.1096 14.7301 18.2172 15.3582 18.134C15.9863 18.0509 16.5684 17.7815 17.0171 17.3664C17.4657 16.9512 17.7568 16.4127 17.8467 15.8315C17.9365 15.2502 17.8203 14.6578 17.5154 14.1429L18.8428 12.9146C19.3594 13.5712 19.6698 14.3472 19.7395 15.1568C19.8093 15.9664 19.6357 16.7781 19.238 17.5021C18.8403 18.2262 18.234 18.8343 17.4861 19.2594C16.7381 19.6845 15.8777 19.9099 15 19.9107ZM6.58843 19.4425L10.2552 16.0496C10.2361 15.867 10.2288 15.6835 10.2332 15.5C10.2351 14.3308 10.738 13.2099 11.6315 12.3831C12.525 11.5564 13.7364 11.0911 15 11.0893C15.1937 11.0902 15.3871 11.1016 15.5794 11.1232L18.3514 8.565C17.2725 8.22212 16.1407 8.04337 15 8.03571C12.6096 8.11889 10.298 8.84834 8.35083 10.1339C6.40363 11.4195 4.90623 13.2048 4.04369 15.2693C3.98544 15.4184 3.98544 15.5816 4.04369 15.7307C4.60692 17.1168 5.47324 18.3804 6.58843 19.4425Z" fill="#D2D1D1"/>
</svg>
