<svg width="15" height="15" viewBox="0 0 15 15" fill="none" xmlns="http://www.w3.org/2000/svg">
<path d="M6.57011 1.35078C6.90353 0.507894 8.09647 0.507895 8.42989 1.35078L9.63592 4.39963C9.77562 4.75281 10.1033 4.99636 10.4818 5.02827L13.6988 5.29944C14.5713 5.37299 14.9347 6.45295 14.2841 7.03895L11.7607 9.31171C11.4917 9.55404 11.3746 9.92288 11.4547 10.276L12.2126 13.6167C12.4106 14.4896 11.4501 15.1631 10.697 14.6794L8.04038 12.9732C7.71115 12.7618 7.28885 12.7618 6.95962 12.9732L4.30298 14.6794C3.54987 15.1631 2.58936 14.4896 2.78738 13.6167L3.54527 10.276C3.62538 9.92288 3.50834 9.55404 3.2393 9.31171L0.715935 7.03895C0.065324 6.45295 0.428674 5.37299 1.30119 5.29944L4.51819 5.02827C4.89666 4.99636 5.22438 4.75281 5.36409 4.39963L6.57011 1.35078Z" fill="#FF906D"/>
</svg>
