<svg width="22" height="25" viewBox="0 0 22 25" fill="none" xmlns="http://www.w3.org/2000/svg">
<path d="M18.6935 13.2251L9.84044 22.1911C8.86927 23.1747 7.55207 23.7273 6.17861 23.7273C4.80516 23.7273 3.48796 23.1747 2.51678 22.1911C1.5456 21.2076 1 19.8735 1 18.4826C1 17.0916 1.5456 15.7576 2.51678 14.774L15.1065 2.02359C15.4272 1.69896 15.8079 1.44149 16.2268 1.26586C16.6457 1.09023 17.0947 0.999892 17.5481 1C18.0015 1.00011 18.4505 1.09066 18.8694 1.26649C19.2882 1.44232 19.6688 1.69998 19.9893 2.02476C20.3098 2.34954 20.5641 2.73508 20.7375 3.15936C20.9109 3.58365 21.0001 4.03837 21 4.49757C20.9999 4.95677 20.9105 5.41146 20.7369 5.83566C20.5633 6.25986 20.3088 6.64528 19.9882 6.96991L7.38925 19.7296C7.06241 20.047 6.62554 20.2204 6.1728 20.2146C5.72006 20.2088 5.28769 20.023 4.96889 19.6974C4.65009 19.3718 4.47038 18.9323 4.46849 18.4738C4.46659 18.0152 4.64267 17.5743 4.95877 17.246L13.9465 8.14355M7.39961 19.718L7.3881 19.7296" stroke="black" stroke-opacity="0.3" stroke-width="1.5" stroke-linecap="round" stroke-linejoin="round"/>
</svg>
