<svg width="24" height="24" viewBox="0 0 24 24" fill="none" xmlns="http://www.w3.org/2000/svg">
<path d="M16.8307 17.7C16.5804 17.4111 16.4552 17.0836 16.4552 16.7173C16.4552 16.3511 16.5804 16.0453 16.8307 15.8L19.357 13.3333H9.55903C9.17211 13.3333 8.84756 13.2053 8.58537 12.9493C8.32318 12.6933 8.19254 12.3769 8.19345 12C8.19345 11.6222 8.32455 11.3053 8.58674 11.0493C8.84893 10.7933 9.17302 10.6658 9.55903 10.6667H19.357L16.8307 8.2C16.5576 7.93333 16.421 7.61645 16.421 7.24933C16.421 6.88222 16.5576 6.56578 16.8307 6.3C17.0811 6.03333 17.3942 5.9 17.7702 5.9C18.1462 5.9 18.4589 6.02222 18.7084 6.26667L23.6244 11.0667C23.761 11.2 23.858 11.3444 23.9153 11.5C23.9727 11.6556 24.0009 11.8222 24 12C24 12.1778 23.9718 12.3444 23.9153 12.5C23.8589 12.6556 23.7619 12.8 23.6244 12.9333L18.7084 17.7333C18.4125 18.0222 18.088 18.1502 17.7347 18.1173C17.3815 18.0844 17.0802 17.9453 16.8307 17.7ZM2.73115 24C1.98009 24 1.3369 23.7387 0.801594 23.216C0.266289 22.6933 -0.000908065 22.0658 2.31846e-06 21.3333V2.66667C2.31846e-06 1.93333 0.267655 1.30533 0.80296 0.782668C1.33827 0.260002 1.981 -0.000886625 2.73115 2.26372e-06H10.9246C11.3115 2.26372e-06 11.6361 0.128002 11.8983 0.384002C12.1604 0.640002 12.2911 0.956446 12.2902 1.33334C12.2902 1.71111 12.1591 2.028 11.8969 2.284C11.6347 2.54 11.3106 2.66756 10.9246 2.66667H2.73115V21.3333H10.9246C11.3115 21.3333 11.6361 21.4613 11.8983 21.7173C12.1604 21.9733 12.2911 22.2898 12.2902 22.6667C12.2902 23.0444 12.1591 23.3613 11.8969 23.6173C11.6347 23.8733 11.3106 24.0009 10.9246 24H2.73115Z" fill="#1A1A1A" fill-opacity="0.3"/>
</svg>
