<svg width="50" height="50" viewBox="0 0 50 50" fill="none" xmlns="http://www.w3.org/2000/svg">
<rect width="50" height="50" rx="10" fill="#75D7A1"/>
<path d="M34.7843 14.1942C34.7843 14.1942 37.1892 13.242 36.988 15.5545C36.9218 16.5067 36.3207 19.84 35.8527 23.4449L34.2494 34.1243C34.2494 34.1243 34.1157 35.6888 32.9129 35.9609C31.7107 36.2325 29.9069 35.0087 29.5726 34.7365C29.3052 34.5322 24.5621 31.4711 22.8919 29.9751C22.4239 29.5665 21.8891 28.7506 22.9588 27.7984L29.9731 20.996C30.7748 20.1801 31.5764 18.2755 28.2361 20.588L18.8824 27.0497C18.8824 27.0497 17.8133 27.7305 15.8095 27.1182L11.4663 25.7574C11.4663 25.7574 9.86301 24.7372 12.6023 23.7171C19.2835 20.5202 27.5013 17.2554 34.783 14.1942H34.7843Z" fill="white"/>
</svg>
