<svg width="30" height="30" viewBox="0 0 30 30" fill="none" xmlns="http://www.w3.org/2000/svg">
<path d="M23.8249 13.2373H23.1V13.2H15V16.8H20.0863C19.3443 18.8956 17.3503 20.4 15 20.4C12.0178 20.4 9.6 17.9821 9.6 15C9.6 12.0178 12.0178 9.6 15 9.6C16.3765 9.6 17.6289 10.1193 18.5824 10.9675L21.1281 8.4219C19.5207 6.92385 17.3706 6 15 6C10.0297 6 6 10.0297 6 15C6 19.9702 10.0297 24 15 24C19.9702 24 24 19.9702 24 15C24 14.3965 23.9379 13.8075 23.8249 13.2373Z" fill="#FFC107"/>
<path d="M7.03772 10.8109L9.99467 12.9795C10.7948 10.9986 12.7325 9.6 15 9.6C16.3766 9.6 17.6289 10.1193 18.5825 10.9675L21.1281 8.4219C19.5207 6.92385 17.3706 6 15 6C11.5431 6 8.54522 7.95165 7.03772 10.8109Z" fill="#FF3D00"/>
<path d="M14.9999 24C17.3246 24 19.4369 23.1104 21.034 21.6636L18.2485 19.3065C17.3145 20.0168 16.1733 20.4009 14.9999 20.4C12.659 20.4 10.6714 18.9074 9.92257 16.8243L6.98767 19.0856C8.47717 22.0002 11.5021 24 14.9999 24Z" fill="#4CAF50"/>
<path d="M23.8249 13.2373H23.1V13.2H15V16.8H20.0863C19.7314 17.7974 19.092 18.6689 18.2472 19.3069L18.2485 19.306L21.034 21.6631C20.8369 21.8422 24 19.5 24 15C24 14.3965 23.9379 13.8075 23.8249 13.2373Z" fill="#1976D2"/>
</svg>
